<svg width="60" height="17" viewBox="0 0 60 17" fill="none" xmlns="http://www.w3.org/2000/svg">
<path d="M8.37075 0.981931C8.40581 0.912296 8.45996 0.85368 8.5271 0.812698C8.59424 0.771716 8.67169 0.75 8.75072 0.75C8.82974 0.75 8.9072 0.771716 8.97434 0.812698C9.04148 0.85368 9.09563 0.912296 9.13068 0.981931L10.9785 4.66192C11.1002 4.90413 11.2799 5.11369 11.5022 5.27259C11.7244 5.4315 11.9825 5.53501 12.2544 5.57425L16.3868 6.16884C16.4651 6.17999 16.5387 6.21246 16.5992 6.26258C16.6597 6.31271 16.7047 6.37847 16.7292 6.45245C16.7537 6.52642 16.7566 6.60566 16.7377 6.68118C16.7187 6.75671 16.6787 6.82552 16.622 6.87982L13.6335 9.74108C13.4364 9.92991 13.2889 10.163 13.2038 10.4203C13.1186 10.6776 13.0984 10.9514 13.1447 11.2181L13.8503 15.2607C13.8641 15.3376 13.8556 15.4168 13.8259 15.4893C13.7961 15.5617 13.7462 15.6245 13.6819 15.6704C13.6176 15.7163 13.5415 15.7436 13.4622 15.749C13.3829 15.7544 13.3037 15.7378 13.2335 15.7011L9.53945 13.7915C9.29604 13.6658 9.02524 13.6002 8.75032 13.6002C8.4754 13.6002 8.20459 13.6658 7.96119 13.7915L4.26792 15.7011C4.19779 15.7376 4.11865 15.754 4.0395 15.7485C3.96035 15.743 3.88437 15.7157 3.8202 15.6698C3.75603 15.6239 3.70624 15.5613 3.6765 15.4889C3.64676 15.4166 3.63827 15.3375 3.65198 15.2607L4.35671 11.2189C4.40327 10.9521 4.3831 10.6781 4.29795 10.4206C4.2128 10.1632 4.06523 9.92995 3.86796 9.74108L0.879428 6.88061C0.822308 6.82637 0.781831 6.75744 0.762609 6.68169C0.743386 6.60593 0.74619 6.52639 0.770701 6.45212C0.795212 6.37786 0.840445 6.31185 0.901248 6.26163C0.96205 6.2114 1.03598 6.17898 1.11461 6.16805L5.24623 5.57425C5.51841 5.53532 5.7769 5.43194 5.99943 5.27301C6.22197 5.11409 6.40189 4.90437 6.52372 4.66192L8.37075 0.981931Z" fill="#FDC700" stroke="#FDC700" stroke-width="1.5" stroke-linecap="round" stroke-linejoin="round"/>
<path d="M29.3708 0.981931C29.4058 0.912296 29.46 0.85368 29.5271 0.812698C29.5942 0.771716 29.6717 0.75 29.7507 0.75C29.8297 0.75 29.9072 0.771716 29.9743 0.812698C30.0415 0.85368 30.0956 0.912296 30.1307 0.981931L31.9785 4.66192C32.1002 4.90413 32.2799 5.11369 32.5022 5.27259C32.7244 5.4315 32.9825 5.53501 33.2544 5.57425L37.3868 6.16884C37.4651 6.17999 37.5387 6.21246 37.5992 6.26258C37.6597 6.31271 37.7047 6.37847 37.7292 6.45245C37.7537 6.52642 37.7566 6.60566 37.7377 6.68118C37.7187 6.75671 37.6787 6.82552 37.622 6.87982L34.6335 9.74108C34.4364 9.92991 34.2889 10.163 34.2038 10.4203C34.1186 10.6776 34.0984 10.9514 34.1447 11.2181L34.8503 15.2607C34.8641 15.3376 34.8556 15.4168 34.8259 15.4893C34.7961 15.5617 34.7462 15.6245 34.6819 15.6704C34.6176 15.7163 34.5415 15.7436 34.4622 15.749C34.3829 15.7544 34.3037 15.7378 34.2335 15.7011L30.5394 13.7915C30.296 13.6658 30.0252 13.6002 29.7503 13.6002C29.4754 13.6002 29.2046 13.6658 28.9612 13.7915L25.2679 15.7011C25.1978 15.7376 25.1187 15.754 25.0395 15.7485C24.9604 15.743 24.8844 15.7157 24.8202 15.6698C24.756 15.6239 24.7062 15.5613 24.6765 15.4889C24.6468 15.4166 24.6383 15.3375 24.652 15.2607L25.3567 11.2189C25.4033 10.9521 25.3831 10.6781 25.298 10.4206C25.2128 10.1632 25.0652 9.92995 24.868 9.74108L21.8794 6.88061C21.8223 6.82637 21.7818 6.75744 21.7626 6.68169C21.7434 6.60593 21.7462 6.52639 21.7707 6.45212C21.7952 6.37786 21.8404 6.31185 21.9012 6.26163C21.962 6.2114 22.036 6.17898 22.1146 6.16805L26.2462 5.57425C26.5184 5.53532 26.7769 5.43194 26.9994 5.27301C27.222 5.11409 27.4019 4.90437 27.5237 4.66192L29.3708 0.981931Z" fill="#FDC700" stroke="#FDC700" stroke-width="1.5" stroke-linecap="round" stroke-linejoin="round"/>
<path d="M50.3708 0.981931C50.4058 0.912296 50.46 0.85368 50.5271 0.812698C50.5942 0.771716 50.6717 0.75 50.7507 0.75C50.8297 0.75 50.9072 0.771716 50.9743 0.812698C51.0415 0.85368 51.0956 0.912296 51.1307 0.981931L52.9785 4.66192C53.1002 4.90413 53.2799 5.11369 53.5022 5.27259C53.7244 5.4315 53.9825 5.53501 54.2544 5.57425L58.3868 6.16884C58.4651 6.17999 58.5387 6.21246 58.5992 6.26258C58.6597 6.31271 58.7047 6.37847 58.7292 6.45245C58.7537 6.52642 58.7566 6.60566 58.7377 6.68118C58.7187 6.75671 58.6787 6.82552 58.622 6.87982L55.6335 9.74108C55.4364 9.92991 55.2889 10.163 55.2038 10.4203C55.1186 10.6776 55.0984 10.9514 55.1447 11.2181L55.8503 15.2607C55.8641 15.3376 55.8556 15.4168 55.8259 15.4893C55.7961 15.5617 55.7462 15.6245 55.6819 15.6704C55.6176 15.7163 55.5415 15.7436 55.4622 15.749C55.3829 15.7544 55.3037 15.7378 55.2335 15.7011L51.5394 13.7915C51.296 13.6658 51.0252 13.6002 50.7503 13.6002C50.4754 13.6002 50.2046 13.6658 49.9612 13.7915L46.2679 15.7011C46.1978 15.7376 46.1187 15.754 46.0395 15.7485C45.9604 15.743 45.8844 15.7157 45.8202 15.6698C45.756 15.6239 45.7062 15.5613 45.6765 15.4889C45.6468 15.4166 45.6383 15.3375 45.652 15.2607L46.3567 11.2189C46.4033 10.9521 46.3831 10.6781 46.298 10.4206C46.2128 10.1632 46.0652 9.92995 45.868 9.74108L42.8794 6.88061C42.8223 6.82637 42.7818 6.75744 42.7626 6.68169C42.7434 6.60593 42.7462 6.52639 42.7707 6.45212C42.7952 6.37786 42.8404 6.31185 42.9012 6.26163C42.962 6.2114 43.036 6.17898 43.1146 6.16805L47.2462 5.57425C47.5184 5.53532 47.7769 5.43194 47.9994 5.27301C48.222 5.11409 48.4019 4.90437 48.5237 4.66192L50.3708 0.981931Z" fill="#FDC700" stroke="#FDC700" stroke-width="1.5" stroke-linecap="round" stroke-linejoin="round"/>
</svg>
